<svg width="15" height="15" viewBox="0 0 15 15" fill="none" xmlns="http://www.w3.org/2000/svg">
<path d="M12.6737 0.533002L12.7798 0.639068L12.6737 0.533002L1.03315 12.1737C0.635631 12.571 0.635631 13.2138 1.03315 13.6111C1.2312 13.8093 1.49181 13.9089 1.75178 13.9089C2.01177 13.9089 2.27124 13.8101 2.47039 13.6111L2.47045 13.6111L14.111 1.97035C14.111 1.97034 14.111 1.97033 14.111 1.97032C14.5085 1.57299 14.5085 0.930296 14.111 0.532977C13.7137 0.135679 13.071 0.135687 12.6737 0.533002Z" fill="white" stroke="white" stroke-width="0.3"/>
<path d="M2.47042 0.532977L2.47045 0.533002L14.111 12.1737C14.111 12.1737 14.111 12.1737 14.111 12.1737C14.5085 12.5711 14.5085 13.2138 14.111 13.6111C13.9125 13.8103 13.652 13.9089 13.3924 13.9089C13.1323 13.9089 12.8719 13.8092 12.6737 13.6111L1.03315 1.97035C1.03314 1.97034 1.03313 1.97033 1.03312 1.97032C0.635639 1.573 0.63564 0.930323 1.03312 0.533002L2.47042 0.532977ZM2.47042 0.532977C2.07297 0.135709 1.43048 0.135665 1.03315 0.532977L2.47042 0.532977Z" fill="white" stroke="white" stroke-width="0.3"/>
</svg>
