<svg width="55" height="55" viewBox="0 0 55 55" fill="none" xmlns="http://www.w3.org/2000/svg">
<path d="M47.3179 6.12842L30.1412 18.8858L33.3176 11.3591L47.3179 6.12842Z" fill="#E2761B" stroke="#E2761B" stroke-linecap="round" stroke-linejoin="round"/>
<path d="M7.66479 6.12842L24.7034 19.0066L21.6824 11.3591L7.66479 6.12842Z" fill="#E4761B" stroke="#E4761B" stroke-linecap="round" stroke-linejoin="round"/>
<path d="M41.1378 35.7L36.5631 42.7087L46.3513 45.4018L49.1651 35.8553L41.1378 35.7Z" fill="#E4761B" stroke="#E4761B" stroke-linecap="round" stroke-linejoin="round"/>
<path d="M5.85217 35.8553L8.64878 45.4018L18.4369 42.7087L13.8622 35.7L5.85217 35.8553Z" fill="#E4761B" stroke="#E4761B" stroke-linecap="round" stroke-linejoin="round"/>
<path d="M17.8845 23.8576L15.157 27.9835L24.8761 28.4151L24.5308 17.9709L17.8845 23.8576Z" fill="#E4761B" stroke="#E4761B" stroke-linecap="round" stroke-linejoin="round"/>
<path d="M37.0982 23.8576L30.3657 17.8501L30.1412 28.4151L39.843 27.9835L37.0982 23.8576Z" fill="#E4761B" stroke="#E4761B" stroke-linecap="round" stroke-linejoin="round"/>
<path d="M18.4369 42.7087L24.2718 39.8603L19.231 35.9243L18.4369 42.7087Z" fill="#E4761B" stroke="#E4761B" stroke-linecap="round" stroke-linejoin="round"/>
<path d="M30.7109 39.8603L36.5631 42.7087L35.7517 35.9243L30.7109 39.8603Z" fill="#E4761B" stroke="#E4761B" stroke-linecap="round" stroke-linejoin="round"/>
<path d="M36.5631 42.7087L30.7109 39.8604L31.177 43.6755L31.1253 45.2809L36.5631 42.7087Z" fill="#D7C1B3" stroke="#D7C1B3" stroke-linecap="round" stroke-linejoin="round"/>
<path d="M18.4369 42.7087L23.8747 45.2809L23.8402 43.6755L24.2718 39.8604L18.4369 42.7087Z" fill="#D7C1B3" stroke="#D7C1B3" stroke-linecap="round" stroke-linejoin="round"/>
<path d="M23.9611 33.4039L19.0929 31.9711L22.5282 30.4001L23.9611 33.4039Z" fill="#233447" stroke="#233447" stroke-linecap="round" stroke-linejoin="round"/>
<path d="M31.0217 33.4039L32.4546 30.4001L35.9072 31.9711L31.0217 33.4039Z" fill="#233447" stroke="#233447" stroke-linecap="round" stroke-linejoin="round"/>
<path d="M18.4369 42.7087L19.2655 35.7L13.8622 35.8553L18.4369 42.7087Z" fill="#CD6116" stroke="#CD6116" stroke-linecap="round" stroke-linejoin="round"/>
<path d="M35.7345 35.7L36.5631 42.7087L41.1378 35.8553L35.7345 35.7Z" fill="#CD6116" stroke="#CD6116" stroke-linecap="round" stroke-linejoin="round"/>
<path d="M39.843 27.9834L30.1412 28.415L31.0389 33.404L32.4717 30.4002L35.9243 31.9712L39.843 27.9834Z" fill="#CD6116" stroke="#CD6116" stroke-linecap="round" stroke-linejoin="round"/>
<path d="M19.0928 31.9712L22.5454 30.4002L23.961 33.404L24.8759 28.415L15.1569 27.9834L19.0928 31.9712Z" fill="#CD6116" stroke="#CD6116" stroke-linecap="round" stroke-linejoin="round"/>
<path d="M15.1569 27.9834L19.2309 35.9244L19.0928 31.9712L15.1569 27.9834Z" fill="#E4751F" stroke="#E4751F" stroke-linecap="round" stroke-linejoin="round"/>
<path d="M35.9242 31.9712L35.7516 35.9244L39.8429 27.9834L35.9242 31.9712Z" fill="#E4751F" stroke="#E4751F" stroke-linecap="round" stroke-linejoin="round"/>
<path d="M24.8759 28.415L23.9609 33.4041L25.1003 39.2907L25.3592 31.5396L24.8759 28.415Z" fill="#E4751F" stroke="#E4751F" stroke-linecap="round" stroke-linejoin="round"/>
<path d="M30.1412 28.415L29.675 31.5224L29.8822 39.2907L31.0388 33.4041L30.1412 28.415Z" fill="#E4751F" stroke="#E4751F" stroke-linecap="round" stroke-linejoin="round"/>
<path d="M31.0389 33.404L29.8823 39.2907L30.7109 39.8604L35.7518 35.9244L35.9244 31.9712L31.0389 33.404Z" fill="#F6851B" stroke="#F6851B" stroke-linecap="round" stroke-linejoin="round"/>
<path d="M19.0929 31.9712L19.231 35.9244L24.2718 39.8604L25.1004 39.2907L23.9611 33.404L19.0929 31.9712Z" fill="#F6851B" stroke="#F6851B" stroke-linecap="round" stroke-linejoin="round"/>
<path d="M31.1252 45.2809L31.177 43.6755L30.7454 43.2957H24.2373L23.8402 43.6755L23.8747 45.2809L18.4369 42.7087L20.3358 44.2624L24.1855 46.9382H30.7972L34.6641 44.2624L36.5631 42.7087L31.1252 45.2809Z" fill="#C0AD9E" stroke="#C0AD9E" stroke-linecap="round" stroke-linejoin="round"/>
<path d="M30.7109 39.8602L29.8823 39.2905H25.1004L24.2718 39.8602L23.8402 43.6753L24.2373 43.2955H30.7454L31.177 43.6753L30.7109 39.8602Z" fill="#161616" stroke="#161616" stroke-linecap="round" stroke-linejoin="round"/>
<path d="M48.043 19.7144L49.5104 12.6711L47.318 6.12842L30.7109 18.4542L37.0983 23.8575L46.1268 26.4988L48.1293 24.1683L47.2662 23.5468L48.6472 22.2866L47.5769 21.458L48.958 20.4049L48.043 19.7144Z" fill="#763D16" stroke="#763D16" stroke-linecap="round" stroke-linejoin="round"/>
<path d="M5.48962 12.6711L6.95698 19.7144L6.02478 20.4049L7.40582 21.458L6.35278 22.2866L7.73382 23.5468L6.87067 24.1683L8.85591 26.4988L17.8845 23.8575L24.2718 18.4542L7.66477 6.12842L5.48962 12.6711Z" fill="#763D16" stroke="#763D16" stroke-linecap="round" stroke-linejoin="round"/>
<path d="M46.1268 26.4989L37.0982 23.8577L39.843 27.9835L35.7517 35.9245L41.1378 35.8555H49.1651L46.1268 26.4989Z" fill="#F6851B" stroke="#F6851B" stroke-linecap="round" stroke-linejoin="round"/>
<path d="M17.8845 23.8577L8.85594 26.4989L5.85217 35.8555H13.8622L19.231 35.9245L15.1569 27.9835L17.8845 23.8577Z" fill="#F6851B" stroke="#F6851B" stroke-linecap="round" stroke-linejoin="round"/>
<path d="M30.1413 28.415L30.7109 18.4542L33.3349 11.3591H21.6824L24.2718 18.4542L24.876 28.415L25.0832 31.5569L25.1005 39.2907H29.8823L29.9168 31.5569L30.1413 28.415Z" fill="#F6851B" stroke="#F6851B" stroke-linecap="round" stroke-linejoin="round"/>
</svg>
