<svg width="55" height="55" viewBox="0 0 55 55" fill="none" xmlns="http://www.w3.org/2000/svg">
<path d="M13.1587 18.2318C21.1222 10.4332 34.0306 10.4332 42.0044 18.2318L42.9625 19.1693C43.3643 19.5608 43.3643 20.1892 42.9625 20.5807L39.6864 23.7949C39.4907 23.9906 39.161 23.9906 38.9653 23.7949L37.6466 22.5071C32.0938 17.0677 23.0795 17.0677 17.5267 22.5071L16.1154 23.8876C15.9196 24.0833 15.59 24.0833 15.3942 23.8876L12.1079 20.6734C11.7061 20.2819 11.7061 19.6535 12.1079 19.262L13.1587 18.2318ZM48.7831 24.8663L51.6986 27.72C52.1004 28.1114 52.1004 28.7399 51.6986 29.1313L38.5429 42.0192C38.1411 42.4107 37.5024 42.4107 37.1006 42.0192L27.7567 32.871C27.6536 32.7783 27.4991 32.7783 27.3961 32.871L18.0625 42.0192C17.6607 42.4107 17.0219 42.4107 16.6202 42.0192L3.45417 29.1416C3.05239 28.7502 3.05239 28.1217 3.45417 27.7303L6.36964 24.8766C6.77142 24.4851 7.41015 24.4851 7.81193 24.8766L17.1559 34.0248C17.2589 34.1175 17.4134 34.1175 17.5164 34.0248L26.8501 24.8766C27.2519 24.4851 27.8906 24.4851 28.2924 24.8766L37.6363 34.0248C37.7393 34.1175 37.8939 34.1175 37.9969 34.0248L47.3408 24.8766C47.7323 24.4748 48.3813 24.4748 48.7831 24.8663Z" fill="#3A99FB"/>
</svg>
