<svg width="60" height="60" viewBox="0 0 60 60" fill="none" xmlns="http://www.w3.org/2000/svg">
<path d="M27.9027 6.20769L1.322 52.3553C1.11054 52.7247 0.999515 53.1433 1 53.5692C1.00049 53.9951 1.11247 54.4134 1.32477 54.7823C1.53706 55.1513 1.84223 55.4579 2.20978 55.6716C2.57733 55.8853 2.99439 55.9985 3.41927 56H56.5807C57.0056 55.9985 57.4227 55.8853 57.7902 55.6716C58.1578 55.4579 58.4629 55.1513 58.6752 54.7823C58.8875 54.4134 58.9995 53.9951 59 53.5692C59.0005 53.1433 58.8895 52.7247 58.678 52.3553L32.0973 6.20769C31.8835 5.84021 31.5773 5.53531 31.2094 5.32341C30.8414 5.11151 30.4244 5 30 5C29.5756 5 29.1586 5.11151 28.7906 5.32341C28.4227 5.53531 28.1165 5.84021 27.9027 6.20769V6.20769Z" fill="#236A0A"/>
<path d="M27.0026 43.8202C27.0026 43.1918 27.1785 42.5776 27.508 42.0551C27.8375 41.5327 28.3058 41.1255 28.8538 40.885C29.4017 40.6445 30.0046 40.5816 30.5863 40.7042C31.168 40.8268 31.7023 41.1294 32.1217 41.5737C32.5411 42.018 32.8267 42.5841 32.9424 43.2004C33.0581 43.8167 32.9987 44.4555 32.7717 45.036C32.5448 45.6165 32.1604 46.1127 31.6673 46.4618C31.1742 46.8109 30.5944 46.9972 30.0013 46.9972C29.603 47.0152 29.2055 46.9453 28.834 46.792C28.4625 46.6388 28.1251 46.4054 27.8432 46.1067C27.5613 45.808 27.341 45.4505 27.1963 45.057C27.0516 44.6634 26.9856 44.2422 27.0026 43.8202V43.8202ZM28.0921 38.8852L27.3325 23H32.5902L31.8605 38.8852H28.0921Z" fill="white"/>
</svg>
